<?xml version="1.0" standalone="no"?>
<!DOCTYPE svg PUBLIC "-//W3C//DTD SVG 20010904//EN"
 "http://www.w3.org/TR/2001/REC-SVG-20010904/DTD/svg10.dtd">
<svg version="1.0" xmlns="http://www.w3.org/2000/svg"
 width="492.000000pt" height="538.000000pt" viewBox="0 0 492.000000 538.000000"
 preserveAspectRatio="xMidYMid meet">

<g transform="translate(0.000000,538.000000) scale(0.100000,-0.100000)"
fill="#000000" stroke="none">
<path d="M1770 5359 c-19 -4 -114 -15 -210 -24 -259 -22 -336 -35 -380 -64
-113 -75 -165 -84 -333 -56 -101 16 -131 10 -141 -31 -11 -41 -40 -78 -141
-179 -78 -77 -93 -97 -104 -140 -7 -27 -20 -65 -29 -83 -20 -41 -133 -147
-215 -202 -34 -23 -66 -48 -70 -56 -4 -7 0 -42 9 -76 15 -58 15 -66 1 -101 -9
-20 -30 -45 -46 -55 -45 -25 -61 -79 -61 -199 0 -56 4 -105 10 -108 25 -16 29
-80 10 -155 -11 -41 -20 -93 -20 -115 0 -26 -9 -53 -25 -77 -28 -41 -33 -99
-12 -134 6 -12 25 -45 40 -74 67 -123 166 -238 317 -365 216 -182 220 -183
446 -155 87 11 186 20 220 20 122 0 219 46 240 113 3 12 13 30 22 40 14 15 13
17 -4 17 -10 0 -39 -10 -64 -21 -70 -33 -139 -49 -210 -49 -36 0 -132 -9 -214
-20 -184 -24 -199 -21 -303 63 -161 129 -289 265 -343 362 -12 22 -33 59 -47
82 l-24 41 30 58 c17 31 31 72 31 91 0 18 10 72 21 118 21 83 21 86 4 132 -11
29 -20 85 -22 143 l-4 95 50 54 c61 66 79 121 63 189 -12 52 -20 40 76 114 46
35 152 136 152 145 0 3 9 16 20 30 11 14 29 56 40 92 18 61 26 73 89 129 37
34 86 87 107 118 l39 56 45 -6 c25 -4 86 -9 135 -12 l90 -6 98 50 c54 27 108
52 120 56 12 3 121 14 242 26 121 11 237 24 258 29 34 8 38 7 43 -15 4 -16 1
-31 -9 -42 -43 -49 -58 -113 -36 -155 37 -72 116 -115 268 -145 57 -12 111
-28 120 -36 21 -18 149 -93 224 -130 48 -24 66 -28 111 -24 70 6 109 38 166
136 23 39 45 72 49 72 4 0 30 -18 60 -40 64 -48 81 -53 301 -80 193 -24 243
-22 305 15 41 23 43 24 111 9 38 -7 70 -14 71 -14 2 0 3 -4 3 -9 0 -5 -17 -12
-37 -16 -21 -4 -41 -9 -44 -11 -3 -2 16 -27 42 -55 56 -60 70 -57 88 16 20 80
8 155 -32 200 l-22 24 -85 -30 c-145 -51 -190 -54 -390 -29 -216 27 -236 32
-280 72 -44 41 -85 68 -102 68 -23 0 -108 -102 -108 -130 0 -5 -6 -15 -13 -22
-7 -7 -23 -28 -36 -45 -19 -28 -28 -33 -64 -33 -26 0 -54 8 -72 20 -16 12 -50
30 -73 41 -24 11 -75 40 -114 65 -57 37 -87 48 -170 65 -105 21 -175 49 -185
74 -9 25 6 63 38 96 33 34 34 50 7 119 -33 85 -47 92 -138 69z"/>
<path d="M3420 4733 c-18 -23 -21 -38 -18 -83 3 -44 19 -86 78 -205 87 -174
89 -176 191 -267 40 -35 49 -61 49 -133 0 -80 28 -154 68 -177 54 -33 91 -71
98 -101 15 -69 57 -116 200 -224 50 -37 120 -93 154 -123 78 -69 134 -100 180
-100 20 0 96 20 170 45 73 25 135 44 136 42 4 -3 -24 -59 -51 -102 -31 -48
-69 -131 -78 -166 -4 -14 -16 -36 -27 -50 -123 -142 -166 -180 -270 -235 -126
-67 -200 -155 -245 -294 -10 -30 -28 -75 -40 -100 -100 -198 -109 -354 -34
-526 21 -46 79 -300 79 -343 0 -27 -57 -87 -106 -111 -44 -22 -128 -73 -140
-85 -6 -5 -27 -24 -47 -42 -19 -17 -48 -51 -63 -75 -24 -37 -28 -54 -28 -118
-1 -41 3 -103 8 -137 l9 -63 -33 -27 c-101 -85 -123 -125 -149 -270 -21 -124
-43 -173 -101 -235 -23 -24 -48 -56 -57 -73 -40 -76 -101 -106 -334 -164 -85
-21 -175 -47 -200 -58 -66 -29 -92 -19 -101 40 -4 32 -42 114 -116 255 -144
272 -155 298 -192 443 -45 174 -77 271 -122 367 -21 46 -43 103 -49 128 -11
43 -10 48 40 152 58 122 74 185 66 251 -12 83 -12 84 -58 77 -22 -4 -43 -9
-47 -11 -4 -2 -3 -28 1 -56 11 -72 -5 -137 -60 -244 -62 -121 -62 -167 2 -298
49 -101 79 -189 127 -371 29 -112 65 -215 92 -261 6 -11 34 -63 61 -115 85
-163 129 -245 139 -257 5 -6 12 -38 15 -70 8 -85 23 -106 88 -131 69 -27 69
-27 121 -2 23 12 118 40 210 65 194 50 221 60 287 98 43 26 127 116 127 138 0
5 15 23 34 40 65 58 115 178 132 314 9 71 39 130 80 156 41 25 79 73 88 112 4
16 1 73 -5 127 -20 157 2 194 171 289 150 85 216 163 207 244 -10 98 -68 336
-88 362 -22 30 -41 144 -36 220 5 68 15 101 65 220 32 77 67 162 77 188 20 54
86 124 143 153 82 42 161 101 237 178 73 74 135 154 135 175 0 18 46 111 112
228 76 133 82 162 37 195 -25 19 -26 19 -90 -6 -177 -68 -269 -98 -315 -103
l-51 -5 -79 68 c-43 38 -81 71 -84 74 -3 3 -50 39 -105 79 -97 70 -134 115
-135 162 0 23 -55 89 -93 112 -56 33 -67 54 -67 135 0 95 -27 149 -110 221
-56 49 -69 68 -139 210 -43 86 -86 181 -96 211 -25 73 -29 76 -55 43z"/>
<path d="M2551 4377 c-8 -10 -7 -14 2 -14 8 0 14 6 14 14 0 7 -1 13 -2 13 -2
0 -8 -6 -14 -13z"/>
<path d="M2709 4303 c-13 -16 -12 -17 4 -4 16 13 21 21 13 21 -2 0 -10 -8 -17
-17z"/>
<path d="M2455 4270 c-3 -5 -1 -10 4 -10 6 0 11 5 11 10 0 6 -2 10 -4 10 -3 0
-8 -4 -11 -10z"/>
<path d="M2659 4253 c-13 -16 -12 -17 4 -4 16 13 21 21 13 21 -2 0 -10 -8 -17
-17z"/>
<path d="M2834 4188 l-19 -23 23 19 c21 18 27 26 19 26 -2 0 -12 -10 -23 -22z"/>
<path d="M2579 4173 c-13 -16 -12 -17 4 -4 9 7 17 15 17 17 0 8 -8 3 -21 -13z"/>
<path d="M2489 4163 c-13 -16 -12 -17 4 -4 16 13 21 21 13 21 -2 0 -10 -8 -17
-17z"/>
<path d="M1345 4079 c-4 -6 -5 -12 -2 -15 2 -3 7 2 10 11 7 17 1 20 -8 4z"/>
<path d="M1330 4041 c0 -6 4 -13 10 -16 6 -3 7 1 4 9 -7 18 -14 21 -14 7z"/>
<path d="M3610 3426 c0 -2 7 -7 16 -10 8 -3 12 -2 9 4 -6 10 -25 14 -25 6z"/>
<path d="M1720 3334 c-132 -48 -234 -123 -317 -234 -79 -106 -123 -253 -104
-354 10 -55 54 -158 75 -175 22 -19 220 23 383 80 273 97 409 265 348 434 -20
55 -19 64 10 86 21 18 23 23 13 47 -18 42 -24 45 -56 28 -29 -15 -62 -13 -62
4 0 4 -26 25 -57 46 -53 35 -63 38 -138 41 -44 1 -87 0 -95 -3z m129 -128
c-190 -98 -379 -246 -445 -349 -35 -56 -49 -59 -39 -9 29 154 184 284 440 367
101 34 120 30 44 -9z m121 -176 c-8 -5 -19 -10 -25 -10 -5 0 -3 5 5 10 8 5 20
10 25 10 6 0 3 -5 -5 -10z m-50 -21 c-8 -5 -46 -28 -85 -51 -158 -93 -311
-224 -365 -312 -36 -59 -37 -24 -1 39 36 63 54 87 95 124 16 14 38 34 48 44
11 10 33 27 51 37 85 52 325 163 257 119z"/>
<path d="M2121 3307 c2 -1 13 -9 24 -17 19 -14 19 -14 6 3 -7 9 -18 17 -24 17
-6 0 -8 -1 -6 -3z"/>
<path d="M2450 3086 c0 -2 7 -7 16 -10 8 -3 12 -2 9 4 -6 10 -25 14 -25 6z"/>
<path d="M2254 2996 c-6 -7 -19 -30 -28 -52 -34 -77 -42 -87 -91 -113 -85 -45
-133 -91 -166 -158 -20 -41 -24 -63 -24 -148 1 -133 33 -261 106 -421 11 -22
19 -43 19 -47 0 -4 19 -41 43 -83 l42 -76 55 6 c54 7 168 53 194 79 8 7 27 24
43 38 44 37 118 157 142 229 42 130 45 267 9 395 -26 92 -150 207 -237 221
-36 6 -41 10 -41 32 0 27 -37 112 -48 112 -4 -1 -12 -6 -18 -14z m164 -284
c83 -226 93 -452 27 -582 -22 -43 -61 -88 -69 -79 -3 2 7 42 20 89 34 115 41
266 20 435 -8 72 -18 145 -22 163 -10 50 1 38 24 -26z m-192 -212 c32 -183 22
-334 -29 -452 -21 -48 -45 -67 -31 -25 29 90 36 139 41 263 5 124 -2 236 -22
365 -12 78 25 -58 41 -151z"/>
<path d="M4766 1793 c-3 -4 -20 -34 -37 -67 -50 -101 -61 -120 -87 -151 -33
-40 -60 -54 -102 -55 -69 0 -76 -13 -83 -157 -4 -97 -13 -156 -37 -246 -33
-128 -33 -164 3 -227 29 -52 61 -71 125 -77 99 -7 95 -13 177 252 20 66 50
160 66 210 62 190 71 293 33 406 -20 62 -50 120 -58 112z m11 -288 c-5 -80
-24 -150 -134 -487 l-45 -138 -49 0 c-41 0 -51 4 -65 25 -28 43 -28 96 0 207
29 114 46 220 46 288 l0 45 57 21 c60 21 110 71 157 155 l19 34 9 -35 c6 -19
8 -71 5 -115z"/>
</g>
</svg>
