<?xml version="1.0" standalone="no"?>
<!DOCTYPE svg PUBLIC "-//W3C//DTD SVG 20010904//EN"
 "http://www.w3.org/TR/2001/REC-SVG-20010904/DTD/svg10.dtd">
<svg version="1.0" xmlns="http://www.w3.org/2000/svg"
 width="1198.000000pt" height="103.000000pt" viewBox="0 0 1198.000000 103.000000"
 preserveAspectRatio="xMidYMid meet">

<g transform="translate(0.000000,103.000000) scale(0.100000,-0.100000)"
fill="#000000" stroke="none">
<path d="M6110 1004 c0 -4 27 -33 60 -65 42 -41 69 -59 87 -59 l25 0 -24 33
c-13 17 -35 47 -48 65 -20 26 -30 32 -62 32 -21 0 -38 -3 -38 -6z"/>
<path d="M10690 962 c0 -5 28 -36 61 -70 41 -41 70 -62 85 -62 23 0 23 1 -13
58 -20 31 -44 62 -52 69 -18 14 -81 17 -81 5z"/>
<path d="M3610 912 c-47 -38 10 -110 59 -76 23 16 27 44 11 75 -13 24 -41 24
-70 1z"/>
<path d="M10177 923 c-4 -3 -7 -67 -7 -142 -1 -109 -3 -133 -13 -121 -23 29
-92 69 -139 80 -87 22 -194 -21 -250 -100 -33 -47 -58 -120 -57 -163 2 -90 69
-186 161 -233 45 -23 61 -26 118 -22 59 5 86 14 145 51 28 17 41 35 73 92 l27
50 3 258 3 257 -29 0 c-16 0 -32 -3 -35 -7z m-95 -260 c18 -10 46 -38 63 -62
27 -38 30 -51 30 -116 0 -65 -3 -78 -30 -116 -45 -64 -74 -80 -148 -86 -82 -7
-141 18 -183 78 -43 63 -47 185 -6 238 31 43 61 68 94 79 46 16 142 8 180 -15z"/>
<path d="M10360 908 c-23 -25 -25 -38 -7 -60 22 -28 47 -29 73 -3 21 21 23 28
13 47 -23 44 -48 49 -79 16z"/>
<path d="M3069 893 c-65 -55 -69 -76 -69 -390 l0 -283 30 0 30 0 0 203 0 202
57 0 c56 0 58 1 61 28 3 27 3 27 -59 27 l-62 0 7 56 c11 95 35 124 100 124 35
0 48 5 56 20 14 26 -13 40 -74 40 -34 0 -52 -6 -77 -27z"/>
<path d="M80 582 c-24 -175 -44 -326 -44 -337 -1 -24 35 -33 51 -13 5 7 22
110 38 228 15 118 31 221 35 229 5 8 50 -72 125 -223 65 -130 121 -239 125
-241 4 -3 61 103 126 235 66 132 122 240 125 240 3 0 18 -98 34 -217 15 -120
32 -228 36 -240 12 -34 59 -32 59 1 0 34 -89 639 -95 645 -6 6 -5 8 -42 -69
-44 -90 -69 -141 -160 -325 l-80 -160 -138 278 c-76 153 -141 279 -144 281 -3
3 -26 -138 -51 -312z"/>
<path d="M2581 866 c-12 -18 -21 -36 -21 -40 0 -8 -24 -59 -224 -478 -31 -65
-56 -120 -56 -124 0 -3 15 -4 33 -2 30 3 35 10 87 113 l55 110 150 0 150 0 55
-110 c49 -98 58 -110 83 -113 26 -3 28 -1 22 20 -4 13 -34 78 -66 146 -33 68
-59 125 -59 128 0 2 -33 73 -74 157 -40 85 -79 170 -85 190 -7 20 -16 37 -21
37 -5 0 -18 -15 -29 -34z m125 -318 l13 -38 -114 0 c-73 0 -115 4 -115 10 0 6
13 37 29 68 17 31 42 84 56 117 l27 60 45 -90 c25 -49 51 -106 59 -127z"/>
<path d="M6885 888 c-3 -7 -4 -159 -3 -338 l3 -325 160 0 160 0 0 30 0 30
-127 3 -128 3 -2 302 -3 302 -28 3 c-16 2 -29 -2 -32 -10z"/>
<path d="M6146 793 c-18 -38 -88 -175 -155 -307 -66 -131 -121 -242 -121 -247
0 -5 13 -9 29 -9 24 0 33 8 62 63 19 34 42 81 53 105 l19 42 151 0 152 0 39
-77 c56 -111 72 -133 101 -133 13 0 24 3 24 8 1 13 -305 621 -313 621 -4 1
-22 -29 -41 -66z m64 -104 c0 -5 22 -49 49 -98 l49 -91 -119 0 -119 0 11 27
c6 15 31 67 57 115 41 77 49 86 60 71 6 -9 12 -20 12 -24z"/>
<path d="M1083 732 c-136 -44 -212 -191 -170 -327 32 -107 137 -185 247 -185
104 0 208 73 247 175 15 39 16 123 2 166 -28 82 -109 157 -191 178 -59 14 -72
13 -135 -7z m184 -75 c18 -10 45 -38 60 -65 23 -38 28 -59 28 -112 0 -132 -77
-205 -207 -197 -80 5 -130 32 -158 87 -55 108 -23 241 70 291 56 30 145 28
207 -4z"/>
<path d="M4020 740 c-115 -22 -220 -143 -220 -255 0 -54 27 -124 65 -171 93
-113 248 -126 362 -30 l32 27 3 -138 3 -138 30 0 30 0 3 230 c3 257 -2 292
-54 370 -27 42 -46 57 -92 77 -66 29 -112 37 -162 28z m150 -80 c111 -57 133
-237 40 -330 -98 -98 -282 -61 -330 65 -13 34 -13 136 0 171 13 32 69 90 101
103 44 18 147 13 189 -9z"/>
<path d="M5225 744 c-62 -15 -118 -51 -155 -100 -76 -100 -77 -208 -5 -317 30
-45 47 -60 94 -81 113 -50 237 -25 312 65 23 27 40 51 38 53 -2 2 -13 8 -25
14 -18 9 -25 6 -54 -30 -19 -22 -49 -47 -67 -54 -45 -19 -147 -18 -190 3 -43
20 -84 84 -91 140 l-5 43 222 0 c248 0 240 -2 221 71 -17 62 -76 136 -131 164
-46 24 -126 38 -164 29z m138 -78 c38 -16 81 -67 91 -108 l6 -28 -190 0 -190
0 10 25 c5 14 16 38 24 54 37 72 152 98 249 57z"/>
<path d="M7475 736 c-95 -30 -176 -125 -191 -224 -14 -95 54 -219 146 -267 84
-43 208 -24 275 44 l35 34 0 -51 0 -52 36 0 36 0 -4 163 c-3 158 -4 163 -33
216 -35 64 -93 113 -158 135 -56 19 -87 19 -142 2z m152 -67 c38 -14 89 -73
97 -111 12 -60 6 -132 -13 -163 -64 -105 -159 -140 -258 -96 -77 35 -115 126
-99 235 5 33 17 55 47 86 22 22 50 45 62 50 31 12 130 12 164 -1z"/>
<path d="M8679 736 c-115 -44 -188 -146 -189 -262 0 -54 51 -155 98 -194 51
-42 123 -64 184 -57 58 7 127 44 157 84 l20 28 1 -57 0 -58 36 0 36 0 -5 158
c-5 171 -14 207 -64 269 -63 79 -192 121 -274 89z m189 -86 c44 -32 62 -69 69
-136 20 -194 -194 -308 -327 -175 -39 38 -50 70 -50 141 0 70 10 98 47 141 41
47 77 60 158 56 56 -2 77 -7 103 -27z"/>
<path d="M10735 741 c-88 -23 -181 -128 -192 -218 -9 -83 4 -136 48 -196 53
-72 103 -99 194 -105 62 -4 77 -1 122 22 50 25 79 49 116 97 17 22 16 24 -5
36 -31 17 -30 17 -58 -24 -32 -46 -89 -72 -161 -73 -111 0 -173 52 -194 163
l-7 37 228 2 229 3 -3 35 c-4 46 -37 114 -73 149 -58 59 -169 92 -244 72z
m114 -62 c58 -12 116 -63 129 -112 l8 -32 -184 -3 c-102 -1 -187 0 -190 2 -7
7 17 62 40 91 24 31 83 59 135 64 7 0 34 -4 62 -10z"/>
<path d="M11635 737 c-70 -21 -120 -62 -155 -131 -41 -82 -47 -130 -25 -197
27 -82 62 -124 132 -160 57 -29 68 -31 132 -27 84 6 147 39 191 100 l30 41
-21 15 c-20 14 -23 12 -45 -14 -13 -16 -23 -32 -24 -36 0 -3 -19 -16 -43 -27
-53 -26 -153 -28 -201 -6 -51 25 -96 100 -96 161 l0 24 223 2 222 3 -1 36 c-2
85 -82 181 -177 213 -54 18 -85 19 -142 3z m170 -77 c26 -13 49 -34 63 -59 41
-73 45 -71 -163 -71 -207 0 -201 -2 -164 69 45 86 158 112 264 61z"/>
<path d="M1726 729 c-65 -10 -125 -54 -156 -115 -24 -46 -25 -57 -25 -219 l0
-170 30 0 30 0 5 182 c5 163 8 185 26 209 36 49 136 68 214 41 57 -19 64 -47
70 -252 l5 -180 28 -3 29 -3 -4 188 c-3 186 -3 189 -32 237 -41 70 -120 101
-220 85z"/>
<path d="M3463 720 c-57 -25 -108 -82 -132 -148 -19 -50 -21 -74 -19 -202 l3
-145 26 -3 26 -3 6 107 c4 59 7 131 7 161 0 64 16 106 58 151 21 22 39 32 61
32 20 0 34 7 41 20 22 41 -19 56 -77 30z"/>
<path d="M8111 728 c-67 -15 -117 -53 -146 -112 -27 -56 -31 -100 -27 -284 l2
-113 28 3 27 3 6 180 c4 107 11 190 18 202 18 35 78 58 151 58 125 0 140 -30
140 -279 l0 -166 30 0 30 0 0 183 c0 173 -1 186 -23 228 -42 78 -139 118 -236
97z"/>
<path d="M11312 712 c-35 -18 -63 -43 -82 -73 -52 -77 -61 -121 -58 -275 l3
-139 30 0 30 0 5 165 c5 150 7 168 28 202 31 49 68 78 102 78 19 0 30 7 38 25
11 23 9 27 -14 35 -14 6 -26 10 -27 10 -1 0 -26 -13 -55 -28z"/>
<path d="M4452 553 c3 -164 5 -182 26 -223 13 -24 31 -50 40 -58 96 -77 246
-67 320 23 42 51 52 107 52 285 l0 150 -28 0 -29 0 -6 -175 c-4 -112 -11 -185
-19 -202 -45 -95 -214 -99 -274 -8 -14 22 -18 59 -22 206 l-5 179 -29 0 -30 0
4 -177z"/>
<path d="M9140 557 c0 -165 1 -175 25 -223 15 -30 42 -61 68 -79 38 -27 49
-30 122 -30 72 0 84 3 122 29 29 19 51 46 70 85 26 53 28 65 31 223 l4 168
-35 0 -35 0 -4 -183 c-2 -154 -6 -187 -21 -210 -26 -40 -81 -60 -148 -54 -120
10 -139 49 -139 282 l0 165 -30 0 -30 0 0 -173z"/>
<path d="M3614 707 c-2 -7 -3 -118 -2 -247 l3 -235 28 -3 27 -3 0 250 0 251
-25 0 c-14 0 -28 -6 -31 -13z"/>
<path d="M10367 714 c-4 -4 -7 -117 -7 -251 l0 -244 33 3 32 3 0 245 0 245
-25 3 c-14 2 -29 0 -33 -4z"/>
</g>
</svg>
