<?xml version="1.0" standalone="no"?>
<!DOCTYPE svg PUBLIC "-//W3C//DTD SVG 20010904//EN"
 "http://www.w3.org/TR/2001/REC-SVG-20010904/DTD/svg10.dtd">
<svg version="1.0" xmlns="http://www.w3.org/2000/svg"
 width="1333.000000pt" height="1066.000000pt" viewBox="0 0 1333.000000 1066.000000"
 preserveAspectRatio="xMidYMid meet">

<g transform="translate(0.000000,1066.000000) scale(0.100000,-0.100000)"
fill="#000000" stroke="none">
<path d="M5975 8925 c-38 -7 -135 -18 -215 -24 -254 -21 -258 -22 -435 -115
-37 -19 -119 -20 -236 -3 -48 8 -96 10 -108 5 -12 -4 -30 -27 -41 -52 -12 -29
-54 -81 -116 -143 -92 -93 -133 -154 -134 -198 0 -50 -67 -123 -206 -226 -51
-38 -96 -74 -99 -79 -3 -5 1 -36 11 -69 20 -72 8 -120 -38 -154 -53 -39 -68
-83 -68 -201 0 -58 4 -108 10 -111 5 -3 14 -23 19 -43 8 -29 6 -55 -9 -117
-11 -44 -20 -96 -20 -116 0 -23 -11 -52 -30 -80 -16 -24 -30 -52 -30 -61 0
-28 99 -203 157 -275 80 -101 116 -137 243 -242 205 -171 200 -169 416 -141
82 11 179 20 215 20 60 0 179 29 217 53 6 5 22 29 33 55 12 26 27 50 33 55 21
15 -40 -2 -104 -29 -52 -21 -89 -28 -185 -35 -66 -4 -171 -15 -233 -23 -156
-22 -173 -18 -282 69 -184 149 -303 280 -375 417 l-35 67 30 62 c16 34 30 76
30 93 0 17 9 66 20 110 19 80 18 119 -6 168 -9 17 -14 61 -14 116 l0 89 49 56
c54 61 76 114 67 155 -20 84 -19 86 21 109 56 32 186 155 221 210 16 26 37 73
46 103 13 48 26 66 90 127 41 40 91 94 110 121 l35 48 73 -12 c141 -25 183
-20 290 35 105 53 133 62 193 66 138 9 395 36 424 45 19 5 38 7 42 4 12 -7 11
-51 -1 -59 -18 -11 -50 -83 -50 -113 0 -81 110 -158 265 -187 80 -14 111 -25
155 -54 30 -19 102 -60 158 -89 94 -49 108 -54 153 -50 65 7 111 44 167 134
23 38 47 70 52 72 5 2 31 -14 58 -36 61 -48 93 -56 311 -83 192 -23 227 -21
294 16 l45 26 71 -16 c39 -9 71 -20 71 -25 0 -4 -18 -11 -41 -15 -22 -4 -39
-11 -37 -15 7 -20 90 -100 98 -95 5 3 16 28 25 56 22 65 16 124 -18 182 l-27
45 -42 -14 c-24 -8 -50 -18 -58 -21 -8 -3 -18 -7 -22 -8 -5 -2 -10 -4 -13 -5
-7 -4 -12 -5 -91 -19 -65 -12 -90 -12 -250 8 -99 12 -195 26 -214 32 -19 5
-62 32 -95 59 -33 28 -66 50 -75 50 -22 -1 -55 -32 -75 -71 -24 -46 -87 -142
-100 -151 -39 -29 -139 10 -306 118 -55 35 -85 46 -183 67 -169 35 -207 72
-152 147 55 75 55 88 1 190 -16 30 -49 34 -150 15z"/>
<path d="M7662 8305 c-29 -37 -29 -100 2 -169 89 -201 130 -271 202 -341 39
-38 76 -80 83 -92 6 -12 11 -51 11 -87 0 -95 24 -143 99 -197 48 -35 62 -51
67 -79 13 -68 66 -130 174 -205 52 -36 143 -111 200 -163 44 -42 123 -82 160
-82 19 0 73 14 120 31 122 43 181 61 187 56 2 -3 -3 -18 -11 -34 -72 -128 -91
-165 -111 -214 -24 -60 -34 -75 -110 -157 -50 -55 -139 -122 -207 -156 -51
-26 -144 -111 -175 -159 -14 -22 -36 -70 -48 -106 -13 -36 -47 -120 -76 -186
-52 -118 -53 -122 -53 -220 -1 -103 12 -170 46 -238 10 -20 27 -80 38 -133 11
-53 22 -100 26 -105 3 -5 8 -37 10 -71 6 -61 5 -64 -28 -94 -18 -17 -68 -52
-111 -76 -175 -100 -241 -182 -242 -298 0 -36 4 -95 9 -132 l8 -68 -60 -56
c-73 -67 -100 -120 -118 -233 -21 -129 -39 -173 -100 -241 -30 -33 -54 -65
-54 -70 0 -20 -56 -73 -102 -96 -27 -14 -135 -48 -241 -75 -105 -28 -203 -57
-217 -66 -19 -11 -31 -12 -53 -4 -22 9 -27 17 -27 46 0 24 -26 85 -90 207
-167 318 -188 365 -224 508 -46 179 -76 267 -126 373 -57 120 -58 156 -2 267
24 47 44 92 45 100 2 8 6 21 11 29 11 17 12 125 2 169 -7 31 -9 32 -44 27 -61
-11 -60 -9 -51 -65 13 -85 -5 -153 -78 -285 -41 -74 -37 -128 20 -251 40 -88
101 -257 111 -310 14 -69 49 -189 71 -240 27 -64 117 -246 125 -254 3 -3 21
-36 40 -75 19 -38 37 -72 40 -75 20 -20 50 -104 50 -141 0 -57 20 -85 84 -115
62 -29 76 -30 119 -4 19 11 108 39 198 61 90 22 173 44 184 48 133 57 200 108
235 176 8 16 31 46 51 65 38 39 93 142 108 205 5 22 13 67 16 100 10 83 29
119 87 160 34 25 56 51 70 81 18 43 19 52 7 149 -20 162 3 203 158 289 104 56
161 102 194 154 25 39 30 55 26 92 -6 66 -64 317 -82 353 -37 74 -56 216 -39
292 4 17 31 89 61 160 30 72 64 154 75 182 24 65 73 117 158 167 36 21 82 50
102 63 60 41 216 203 237 247 11 23 31 68 46 101 15 33 56 110 92 172 71 123
76 153 32 185 -25 19 -26 19 -75 -2 -27 -12 -74 -30 -104 -40 -30 -10 -89 -30
-130 -44 -131 -45 -128 -47 -310 107 -50 43 -109 89 -129 101 -63 40 -98 82
-110 133 -11 42 -59 113 -77 113 -3 0 -24 14 -45 31 l-39 31 0 79 c0 100 -10
121 -111 225 -69 71 -85 96 -145 220 -37 76 -79 170 -94 208 l-27 69 -21 -28z"/>
<path d="M6791 7947 c-8 -10 -7 -14 2 -14 8 0 14 6 14 14 0 7 -1 13 -2 13 -2
0 -8 -6 -14 -13z"/>
<path d="M6949 7873 c-13 -16 -12 -17 4 -4 9 7 17 15 17 17 0 8 -8 3 -21 -13z"/>
<path d="M6695 7840 c-3 -5 -1 -10 4 -10 6 0 11 5 11 10 0 6 -2 10 -4 10 -3 0
-8 -4 -11 -10z"/>
<path d="M7074 7758 l-19 -23 23 19 c21 18 27 26 19 26 -2 0 -12 -10 -23 -22z"/>
<path d="M6729 7733 c-13 -16 -12 -17 4 -4 9 7 17 15 17 17 0 8 -8 3 -21 -13z"/>
<path d="M5585 7649 c-4 -6 -5 -12 -2 -15 2 -3 7 2 10 11 7 17 1 20 -8 4z"/>
<path d="M5570 7611 c0 -6 4 -13 10 -16 6 -3 7 1 4 9 -7 18 -14 21 -14 7z"/>
<path d="M7850 6996 c0 -2 7 -7 16 -10 8 -3 12 -2 9 4 -6 10 -25 14 -25 6z"/>
<path d="M5929 6891 c-142 -55 -272 -176 -338 -313 -70 -145 -72 -261 -8 -383
32 -59 32 -60 72 -57 48 4 226 41 240 50 6 4 12 7 15 8 96 16 286 111 352 176
81 80 111 168 88 258 -6 25 -14 56 -17 69 -4 17 0 28 17 41 43 32 4 100 -41
72 -29 -18 -43 -15 -75 19 -69 75 -202 100 -305 60z m191 -100 c-19 -9 -54
-29 -77 -44 -24 -15 -45 -27 -48 -27 -3 0 -45 -26 -92 -57 -101 -67 -227 -184
-263 -242 -14 -22 -29 -41 -33 -41 -4 0 -6 20 -3 45 10 84 94 187 206 255 105
63 269 128 325 128 14 0 10 -5 -15 -17z m99 -185 c-2 -2 -35 -21 -74 -41 -101
-54 -189 -113 -275 -183 -65 -53 -100 -90 -176 -187 -15 -19 -15 -19 -9 10 11
49 92 161 153 209 31 25 84 60 117 78 100 55 286 135 264 114z"/>
<path d="M6361 6877 c2 -1 13 -9 24 -17 19 -14 19 -14 6 3 -7 9 -18 17 -24 17
-6 0 -8 -1 -6 -3z"/>
<path d="M6690 6656 c0 -2 7 -7 16 -10 8 -3 12 -2 9 4 -6 10 -25 14 -25 6z"/>
<path d="M6489 6557 c-9 -12 -24 -44 -34 -70 -18 -47 -39 -68 -100 -97 -48
-24 -119 -96 -146 -147 -20 -41 -24 -62 -24 -138 1 -49 4 -101 8 -115 4 -14 9
-40 12 -57 2 -18 8 -40 14 -50 5 -10 9 -21 9 -26 1 -21 15 -71 28 -95 8 -15
14 -31 14 -35 0 -16 112 -236 126 -248 27 -22 205 31 250 76 7 6 25 22 40 36
43 36 104 133 136 215 49 126 53 270 12 410 -28 96 -172 224 -251 224 -18 0
-23 6 -23 25 0 32 -22 86 -41 102 -11 9 -17 6 -30 -10z m184 -318 c76 -222 73
-467 -6 -571 -37 -49 -63 -62 -52 -28 4 12 8 28 9 34 1 6 4 16 8 21 19 32 33
145 32 275 -1 127 -6 186 -30 340 -7 49 8 22 39 -71z m-207 -164 c21 -114 23
-283 5 -355 -16 -63 -55 -155 -70 -165 -14 -8 -14 -4 5 40 8 20 13 40 10 43
-3 3 -2 10 4 16 31 38 40 317 15 480 -8 55 -15 104 -14 110 2 22 30 -81 45
-169z"/>
<path d="M8956 5264 c-32 -60 -65 -117 -74 -128 -25 -27 -67 -46 -104 -46 -18
0 -43 -8 -55 -18 -19 -15 -22 -29 -26 -142 -3 -98 -11 -150 -36 -242 -28 -105
-30 -122 -20 -168 21 -101 112 -158 209 -133 35 9 36 11 81 149 71 214 137
433 149 498 18 91 4 172 -53 305 l-14 33 -57 -108z m59 -71 c11 -43 6 -151
-12 -218 -8 -33 -16 -67 -18 -75 -2 -8 -10 -33 -18 -55 -22 -58 -104 -324
-112 -362 -6 -32 -8 -33 -61 -33 -51 0 -56 2 -74 33 -24 39 -26 102 -5 171 8
26 18 69 21 95 3 25 10 57 16 70 5 13 12 66 15 117 3 51 9 91 14 89 4 -3 29 4
56 16 54 23 112 82 138 140 21 46 30 49 40 12z"/>
<path d="M6741 3005 c49 -49 72 -66 88 -63 20 3 19 7 -26 63 -43 53 -53 60
-88 63 l-40 3 66 -66z"/>
<path d="M11267 3016 c4 -8 32 -40 61 -70 37 -39 61 -56 78 -56 l25 0 -22 33
c-65 94 -80 107 -115 107 -27 0 -33 -3 -27 -14z"/>
<path d="M4180 2968 c-25 -27 -25 -40 -2 -61 46 -42 102 6 68 58 -20 31 -39
32 -66 3z"/>
<path d="M10747 2984 c-4 -4 -7 -68 -7 -143 -1 -109 -3 -133 -13 -120 -7 9
-39 31 -71 50 -45 25 -72 33 -111 34 -105 1 -203 -73 -243 -182 -27 -74 -27
-98 -1 -165 26 -67 79 -123 147 -155 115 -56 261 -3 327 117 l30 55 0 255 0
255 -25 3 c-14 2 -29 0 -33 -4z m-122 -247 c83 -32 120 -92 120 -192 -1 -125
-56 -191 -169 -202 -141 -13 -223 58 -227 199 -4 127 73 206 201 206 25 0 59
-5 75 -11z"/>
<path d="M10930 2968 c-24 -26 -24 -28 -4 -56 32 -46 108 -7 82 42 -22 42 -48
46 -78 14z"/>
<path d="M3643 2951 c-70 -51 -74 -74 -71 -391 l3 -275 25 0 25 0 2 200 1 200
24 2 c12 0 40 1 61 2 34 1 38 4 35 24 -3 19 -10 22 -61 25 l-58 3 2 47 c3 51
20 102 41 119 7 6 35 13 63 15 39 3 51 7 53 22 9 46 -85 50 -145 7z"/>
<path d="M3124 2863 c-26 -54 -75 -158 -110 -231 -35 -73 -64 -135 -64 -137 0
-2 -20 -46 -45 -96 -53 -109 -55 -121 -17 -117 24 3 34 16 82 116 l55 112 150
-2 150 -3 55 -110 c48 -96 58 -110 83 -113 15 -2 27 -1 27 2 0 10 -46 111
-160 351 -28 59 -64 137 -121 263 -15 34 -31 62 -34 62 -3 0 -26 -44 -51 -97z
m115 -171 c29 -63 51 -116 48 -118 -2 -3 -56 -3 -119 -2 l-114 3 59 124 c32
68 62 120 66 115 5 -5 32 -60 60 -122z"/>
<path d="M7455 2947 c-3 -7 -4 -158 -3 -337 l3 -325 140 -3 c172 -3 187 0 183
36 l-3 27 -126 3 c-126 3 -127 3 -133 28 -4 14 -6 143 -6 287 0 144 0 270 0
280 0 20 -48 24 -55 4z"/>
<path d="M650 2638 c-51 -362 -50 -351 -29 -356 30 -6 46 25 54 100 5 40 10
87 12 103 5 49 32 228 39 259 6 26 20 2 126 -210 66 -131 122 -242 126 -246 4
-4 61 100 127 232 66 132 122 240 125 240 3 0 20 -104 37 -230 18 -127 35
-235 38 -240 3 -6 17 -10 31 -10 30 0 30 1 -1 205 -14 88 -26 167 -26 175 -1
8 -10 75 -20 148 -10 73 -19 135 -19 138 0 2 -4 4 -10 4 -5 0 -10 -4 -10 -9 0
-5 -59 -129 -131 -276 -116 -235 -133 -264 -144 -248 -7 10 -70 134 -141 276
-71 141 -131 257 -134 257 -3 0 -25 -141 -50 -312z"/>
<path d="M6742 2893 c-123 -233 -302 -587 -302 -597 0 -4 12 -6 28 -4 23 3 35
17 82 105 l55 103 153 0 152 0 45 -92 c25 -50 49 -96 54 -102 11 -13 61 -20
61 -9 0 13 -302 608 -310 611 -5 2 -13 -5 -18 -15z m81 -225 l55 -108 -119 0
c-65 0 -119 3 -119 6 0 17 115 223 121 216 3 -4 31 -55 62 -114z"/>
<path d="M1657 2793 c-137 -46 -218 -202 -172 -332 37 -105 124 -171 236 -179
48 -4 67 0 114 24 133 64 190 213 131 339 -31 68 -101 130 -167 149 -64 19
-81 19 -142 -1z m171 -71 c99 -45 132 -214 60 -314 -63 -90 -253 -90 -316 0
-70 97 -42 260 51 309 64 33 140 35 205 5z"/>
<path d="M5785 2801 c-52 -13 -91 -39 -133 -86 -87 -99 -94 -216 -20 -323 30
-43 114 -106 129 -97 4 3 10 1 14 -5 11 -18 114 -11 168 12 50 21 65 33 114
91 l22 26 -21 15 c-19 14 -24 12 -67 -34 -52 -55 -85 -65 -181 -58 -62 4 -103
26 -124 64 -6 10 -15 22 -19 25 -4 3 -11 30 -14 60 l-5 54 223 0 224 0 -2 38
c-7 106 -115 210 -232 221 -25 3 -59 1 -76 -3z m134 -64 c22 -1 95 -78 108
-115 l11 -32 -194 0 -194 0 6 28 c9 36 38 77 74 102 17 12 30 19 30 17 0 -3
12 -1 28 4 15 4 47 6 72 3 25 -3 51 -6 59 -7z"/>
<path d="M8040 2794 c-107 -38 -184 -143 -185 -249 0 -141 122 -266 260 -265
53 1 120 32 161 76 37 39 39 37 34 -43 -1 -31 0 -33 34 -33 l36 0 0 143 c0
158 -15 220 -68 285 -63 79 -185 117 -272 86z m172 -70 c15 -8 39 -30 54 -49
38 -50 46 -162 16 -221 -53 -103 -164 -141 -262 -91 -67 33 -97 84 -99 168 -1
39 4 81 12 101 16 39 77 96 110 102 12 3 31 7 42 9 30 6 96 -4 127 -19z"/>
<path d="M9270 2799 c-14 -6 -42 -18 -63 -27 -31 -13 -75 -54 -116 -107 -4 -5
-13 -31 -20 -58 -35 -124 43 -267 169 -312 85 -30 178 -8 241 58 l39 39 0 -56
0 -57 33 3 32 3 -1 155 c-1 176 -12 218 -78 284 -68 67 -176 101 -236 75z
m146 -74 c53 -22 86 -75 91 -150 6 -70 -4 -108 -44 -163 -75 -101 -239 -93
-311 16 -26 39 -32 157 -10 203 20 42 78 97 111 103 12 3 31 7 42 9 27 6 83
-3 121 -18z"/>
<path d="M11315 2802 c-78 -17 -166 -100 -194 -181 -14 -43 -13 -126 2 -168
20 -54 86 -123 141 -149 105 -49 223 -22 300 68 39 45 41 61 9 66 -14 2 -28
-7 -43 -29 -32 -45 -91 -69 -171 -69 -100 0 -156 45 -183 148 l-13 52 228 0
229 0 0 26 c0 139 -165 266 -305 236z m167 -88 c34 -21 78 -86 78 -114 0 -6
-67 -10 -196 -10 -108 0 -194 3 -192 8 2 4 12 23 21 43 19 43 68 87 105 95 15
3 32 7 37 10 25 9 113 -9 147 -32z"/>
<path d="M12203 2797 c-101 -29 -187 -148 -187 -257 2 -176 179 -303 343 -245
54 19 108 61 128 98 14 28 14 32 -3 44 -15 11 -20 9 -42 -22 -14 -19 -44 -44
-67 -55 -52 -25 -152 -27 -202 -3 -45 21 -81 76 -89 136 l-7 47 224 2 c256 3
244 -2 208 92 -46 126 -183 198 -306 163z m172 -74 c36 -17 84 -78 88 -113 2
-20 -4 -21 -186 -23 -174 -2 -187 -1 -187 16 0 29 38 95 65 113 56 36 152 39
220 7z"/>
<path d="M4034 2781 c-58 -26 -116 -97 -137 -167 -14 -46 -17 -88 -15 -194 l3
-135 26 -3 26 -3 7 163 c5 135 10 169 27 205 25 52 62 83 100 83 18 0 32 7 39
21 13 23 13 22 -16 37 -15 8 -29 6 -60 -7z"/>
<path d="M4513 2770 c-76 -43 -128 -120 -139 -204 -14 -98 57 -217 157 -265
82 -40 194 -21 263 43 15 15 30 25 33 22 3 -2 5 -64 6 -138 l2 -133 30 0 30 0
3 237 c2 215 1 242 -17 288 -31 81 -60 116 -125 150 -83 42 -169 43 -243 0z
m248 -61 c55 -43 77 -94 74 -178 -1 -61 -6 -78 -31 -114 -40 -57 -92 -81 -174
-81 -52 0 -72 5 -101 24 -56 37 -82 83 -87 151 -7 94 3 126 58 180 l49 48 89
-2 c79 -2 92 -5 123 -28z"/>
<path d="M2254 2779 c-42 -12 -111 -82 -125 -127 -6 -21 -14 -110 -16 -199 -5
-153 -4 -161 15 -167 10 -4 27 -4 36 0 14 5 16 27 17 163 1 86 3 169 5 185 7
61 71 98 165 95 121 -5 139 -40 139 -276 0 -81 4 -154 9 -161 5 -8 17 -12 27
-10 18 3 19 16 22 163 2 124 -1 171 -13 211 -17 55 -62 106 -108 123 -34 13
-129 13 -173 0z"/>
<path d="M5024 2775 c-3 -8 -4 -88 -2 -177 3 -144 6 -168 26 -205 67 -129 245
-152 349 -45 54 55 64 104 61 292 l-3 145 -26 3 -26 3 -5 -180 c-6 -199 -10
-214 -71 -251 -38 -24 -125 -27 -165 -6 -15 8 -38 26 -52 41 -24 25 -25 31
-28 198 -2 95 -5 178 -7 185 -6 17 -44 15 -51 -3z"/>
<path d="M8662 2780 c-46 -11 -98 -49 -121 -90 -29 -52 -39 -138 -32 -280 l6
-125 25 0 25 0 6 180 c3 116 10 188 18 203 29 55 180 82 239 44 42 -27 47 -49
52 -242 l5 -185 28 -3 29 -3 -4 194 -3 194 -29 41 c-49 71 -138 97 -244 72z"/>
<path d="M9713 2618 c1 -95 6 -184 10 -197 34 -121 182 -176 307 -113 47 24
59 36 85 87 29 59 30 62 30 225 l0 165 -32 3 -33 3 0 -173 c0 -197 -9 -230
-70 -260 -42 -22 -118 -23 -165 -4 -63 27 -69 49 -75 251 l-5 180 -28 3 -28 3
4 -173z"/>
<path d="M11878 2770 c-48 -26 -94 -83 -118 -148 -16 -43 -20 -78 -20 -192 0
-126 2 -139 19 -145 10 -3 26 -3 35 1 14 5 16 25 16 134 0 189 5 215 55 266
28 30 50 44 67 44 16 0 32 9 41 24 15 23 15 24 -6 30 -34 9 -49 7 -89 -14z"/>
<path d="M4184 2767 c-2 -7 -3 -118 -2 -247 l3 -235 28 -3 27 -3 0 250 0 251
-25 0 c-14 0 -28 -6 -31 -13z"/>
<path d="M10934 2767 c-2 -7 -3 -118 -2 -247 l3 -235 26 -3 c19 -2 28 2 32 16
7 30 9 406 1 447 -5 29 -11 35 -30 35 -14 0 -27 -6 -30 -13z"/>
</g>
</svg>
